<?xml version="1.0" encoding="UTF-8" standalone="no"?>
<!-- Created with Inkscape (http://www.inkscape.org/) -->

<svg
  width="91.798317mm"
  height="55.203674mm"
  viewBox="0 0 91.798317 55.203674"
  version="1.1"
  id="svg5"
  xml:space="preserve"
  sodipodi:docname="logo_acf.svg"
  inkscape:version="1.2 (dc2aedaf03, 2022-05-15)"
  xmlns:inkscape="http://www.inkscape.org/namespaces/inkscape"
  xmlns:sodipodi="http://sodipodi.sourceforge.net/DTD/sodipodi-0.dtd"
  xmlns:xlink="http://www.w3.org/1999/xlink"
  xmlns="http://www.w3.org/2000/svg"
  xmlns:svg="http://www.w3.org/2000/svg">
  <sodipodi:namedview
    id="namedview7"
    pagecolor="#ffffff"
    bordercolor="#000000"
    borderopacity="0.25"
    inkscape:showpageshadow="2"
    inkscape:pageopacity="0.0"
    inkscape:pagecheckerboard="0"
    inkscape:deskcolor="#d1d1d1"
    inkscape:document-units="mm"
    showgrid="false"
    inkscape:zoom="0.2102413"
    inkscape:cx="78.481249"
    inkscape:cy="561.25984"
    inkscape:window-width="1920"
    inkscape:window-height="1129"
    inkscape:window-x="-8"
    inkscape:window-y="-8"
    inkscape:window-maximized="1"
    inkscape:current-layer="layer1" />
  <defs id="defs2">
    <linearGradient id="acf">
      <stop
        style="stop-color:#259373;stop-opacity:1;"
        offset="0"
        id="stop30602" /><stop
        style="stop-color:#1d96d2;stop-opacity:1;"
        offset="0.28498986"
        id="stop30604" /><stop
        style="stop-color:#2f5a9e;stop-opacity:1;"
        offset="0.47287014"
        id="stop30611" /><stop
        style="stop-color:#4a2c80;stop-opacity:1;"
        offset="0.66683573"
        id="stop30606" /><stop
        style="stop-color:#982571;stop-opacity:1;"
        offset="1"
        id="stop30608" />
    </linearGradient>
    <linearGradient
      inkscape:collect="always"
      xlink:href="#acf"
      id="linearGradient33735"
      x1="57.694832"
      y1="100.98221"
      x2="149.49316"
      y2="100.98221"
      gradientUnits="userSpaceOnUse" />
  </defs>
  <g inkscape:label="Layer 1" inkscape:groupmode="layer" id="layer1" transform="translate(-57.694833,-73.380369)">
    <path
      style="display:inline;fill:url(#linearGradient33735);fill-opacity:1;stroke-width:0.264583"
      d="m 76.600878,128.3825 c -13.13897,-0.10795 -17.789966,-0.2277 -18.365481,-0.47285 -1.280919,-0.54564 -0.242904,-0.97045 2.663024,-1.08985 0.221092,-0.009 0.202921,-0.35116 -0.06615,-1.24521 -0.204039,-0.67797 -0.370981,-1.67726 -0.370981,-2.22065 0,-0.6171 -0.143422,-1.04301 -0.382063,-1.13458 -0.495492,-0.19014 -1.055131,-2.06478 -0.854575,-2.8626 0.109093,-0.43398 0.360465,-0.63092 0.840067,-0.65816 1.903735,-0.10815 2.377283,-0.34555 3.110437,-1.55934 0.399145,-0.66081 0.728333,-1.46451 0.731528,-1.786 0.01106,-1.11312 0.992289,-2.74865 2.268357,-3.78096 1.7679,-1.43019 2.394251,-2.19544 2.73973,-3.34727 0.246617,-0.82223 0.222007,-1.10065 -0.147085,-1.66395 -0.373975,-0.57076 -0.409633,-1.01607 -0.228127,-2.84901 0.23925,-2.41607 0.239296,-2.51534 0.0031,-6.801323 -0.09217,-1.672723 -0.251547,-3.125099 -0.354178,-3.227501 -0.10263,-0.102402 -0.862741,-0.362198 -1.689136,-0.577325 -2.659039,-0.692199 -3.65684,-1.423866 -3.65684,-2.681485 0,-0.695514 0.271586,-1.091172 1.521355,-2.216373 0.836744,-0.753344 2.312595,-2.098824 3.279668,-2.989954 1.691468,-1.558639 3.639732,-2.595554 4.877706,-2.596039 0.312394,-1.22e-4 0.699715,-0.278833 0.895264,-0.644221 0.303729,-0.567523 0.265714,-0.779624 -0.320095,-1.785938 -1.430254,-2.456919 -1.103689,-4.329528 0.91479,-5.245639 2.785267,-1.264128 4.961786,0.09296 4.97115,3.099584 0.0016,0.552268 0.0063,1.182718 0.01019,1.400999 0.01886,1.061363 -0.356674,2.806948 -0.654621,3.042708 -0.656037,0.51911 -0.43374,0.79941 0.953383,1.202146 l 1.406618,0.408395 0.195662,1.443688 c 0.377973,2.788858 0.496226,3.14508 1.405213,4.233069 1.097446,1.313556 1.255969,2.824412 0.387471,3.69291 -0.833239,0.833239 -1.54161,0.617831 -2.444654,-0.743392 -0.39845,-0.600611 -0.410811,-0.586987 -0.720149,0.79375 -0.173106,0.772668 -0.41684,1.702507 -0.541628,2.066309 -0.124788,0.363802 -0.2843,1.25677 -0.35447,1.984375 -0.130006,1.348088 -0.285102,1.9593 -0.741778,2.923267 -0.405368,0.85567 -0.13684,1.76361 0.817829,2.76527 0.485431,0.50933 1.193655,1.34276 1.573829,1.85209 0.380178,0.50932 0.961195,1.2237 1.291151,1.5875 0.611275,0.67397 1.115735,2.06184 1.118394,3.07691 0.0013,0.53646 0.156316,0.57 3.242622,0.70214 1.78263,0.0763 3.490638,0.21883 3.795572,0.31669 0.541677,0.17383 0.55865,0.0832 0.738122,-3.93977 0.176577,-3.95814 0.161464,-4.14777 -0.389972,-4.89363 -0.723667,-0.97881 -0.729406,-2.782423 -0.01333,-4.186062 0.281622,-0.552027 0.597424,-1.68705 0.701778,-2.522274 0.164954,-1.320178 0.131768,-1.51859 -0.254,-1.51859 -0.24406,0 -1.091216,-0.306302 -1.882571,-0.680672 -1.404988,-0.664666 -1.438823,-0.706757 -1.438823,-1.789856 0,-1.35179 0.592542,-2.509021 2.829827,-5.526625 1.216343,-1.640579 2.183837,-2.622842 3.343505,-3.394543 1.388621,-0.924058 1.507964,-1.060868 0.800603,-0.917798 -0.99264,0.200771 -3.534352,-0.557288 -3.534352,-1.054111 0,-0.185962 0.20836,-0.422307 0.463021,-0.525212 0.401193,-0.162116 0.374695,-0.221425 -0.198437,-0.444152 l -0.661459,-0.257052 0.579189,-0.473405 c 0.433263,-0.354133 0.503256,-0.549336 0.277813,-0.774781 -0.225447,-0.225445 -0.184119,-0.301375 0.164031,-0.301375 0.255973,0 0.398729,-0.107885 0.317235,-0.239745 -0.08149,-0.131859 -0.404794,-0.172635 -0.718447,-0.09061 -0.361894,0.09464 -0.507373,0.04735 -0.398132,-0.129407 0.09468,-0.153195 -0.0058,-0.346807 -0.223207,-0.430249 -0.728417,-0.27952 -0.418127,-0.688812 0.398393,-0.525507 0.823153,0.164631 1.022329,-0.102152 0.480661,-0.64382 -0.385596,-0.385594 -0.201202,-0.593192 0.614661,-0.692015 0.343459,-0.0416 1.083604,-0.272212 1.644764,-0.512469 0.561163,-0.240256 1.121468,-0.3743 1.245127,-0.297877 0.123655,0.07642 0.661328,-0.04343 1.194829,-0.26634 1.25621,-0.524879 2.570446,-0.514561 3.630493,0.0285 1.082401,0.554513 1.185951,0.732211 1.393171,2.390754 0.0998,0.798577 0.326,1.433121 0.54023,1.515329 0.38155,0.146416 0.52314,0.951791 0.16732,0.951791 -0.11068,0 -0.2157,0.35378 -0.23337,0.786177 -0.0516,1.263002 -0.28315,1.595073 -1.11218,1.595073 -1.537927,0 -1.944658,1.381117 -0.822557,2.793098 0.728667,0.91691 0.808677,1.193556 0.758217,2.621718 -0.031,0.878153 -0.27653,2.166596 -0.545556,2.863208 -0.269028,0.696611 -0.489143,1.313378 -0.489143,1.370593 0,0.315537 1.776509,-0.463526 2.082789,-0.91338 0.36636,-0.538085 1.46377,-0.709327 2.07122,-0.323196 0.17465,0.111021 0.42971,0.49615 0.56681,0.855844 l 0.24926,0.653989 0.19865,-0.793749 c 0.20842,-0.832848 1.39345,-3.344715 1.6851,-3.571875 0.0934,-0.07276 0.36938,-0.446246 0.61325,-0.829967 0.24387,-0.38372 0.86005,-0.955179 1.36929,-1.269907 0.50924,-0.314728 1.00825,-0.831706 1.1089,-1.148841 0.30056,-0.94698 1.493,-2.265525 2.21206,-2.445998 1.19671,-0.300357 1.28599,-0.525076 1.13975,-2.869027 -0.13385,-2.145566 -0.11844,-2.219277 0.64204,-3.070402 0.70934,-0.793892 0.92208,-0.874818 2.37333,-0.902814 0.90239,-0.01741 1.88935,0.126658 2.27442,0.331992 1.11726,0.595757 2.16817,4.187717 1.43866,4.91723 -0.20545,0.20545 -0.45356,0.976738 -0.55136,1.713973 -0.13211,0.995877 -0.29449,1.350786 -0.63172,1.380727 -0.24965,0.02216 -0.6325,0.05749 -0.85078,0.0785 -0.21828,0.02101 -0.35577,0.211236 -0.30552,0.422721 0.10505,0.44213 0.10362,1.080613 -0.01,4.2873 -0.0903,2.558215 -0.10569,2.539131 1.65039,2.051282 0.71543,-0.198751 1.21098,-0.647204 2.08557,-1.88738 0.96327,-1.365911 1.18732,-1.554948 1.39761,-1.179188 0.17078,0.305163 0.13859,0.584702 -0.1012,0.878853 -0.21003,0.257655 0.19246,0.127163 0.99953,-0.324056 l 1.35116,-0.755409 0.61696,0.574787 c 0.79663,0.74217 0.90119,0.728035 1.57081,-0.212349 0.33559,-0.471293 0.95327,-0.893322 1.53937,-1.051773 0.53838,-0.145552 1.24677,-0.452936 1.57419,-0.683077 0.60341,-0.424132 0.81549,-1.182181 0.33073,-1.182181 -0.14552,0 -0.26459,-0.178594 -0.26459,-0.396875 0,-0.218282 -0.1318,-0.396875 -0.29289,-0.396875 -0.16109,0 -0.22436,-0.178594 -0.14059,-0.396875 0.0838,-0.218282 0.0499,-0.396875 -0.0753,-0.396875 -0.37859,0 -0.58115,-1.298655 -0.28801,-1.846403 0.22178,-0.414392 0.16754,-0.569795 -0.28305,-0.810941 l -0.5574,-0.298312 0.55219,-0.587774 c 0.40244,-0.42838 0.47306,-0.666901 0.2604,-0.87956 -0.21266,-0.212658 -0.15969,-0.515415 0.19534,-1.116432 0.46211,-0.78229 0.54854,-0.815753 1.6827,-0.651502 0.65757,0.09523 1.41889,0.289182 1.69183,0.431006 0.27294,0.141824 0.91507,0.275433 1.42694,0.296911 0.61986,0.02601 1.02849,0.212048 1.22354,0.557041 0.16106,0.284897 0.44167,0.680354 0.62358,0.878795 0.32792,0.357739 0.40082,0.974695 0.44196,3.740477 0.0194,1.302577 -0.0474,1.474884 -0.73315,1.891915 -0.82377,0.500963 -0.78536,0.533567 1.06665,0.905574 1.07454,0.215838 1.4287,0.654372 1.42288,1.761815 -0.0223,4.242252 0.22274,7.058002 0.71046,8.162806 0.53533,1.212675 0.84127,2.019081 0.85427,2.251736 0.004,0.07123 0.24536,0.367639 0.5364,0.658681 0.95875,0.958748 0.47672,2.913694 -0.61512,2.494708 -0.22969,-0.08814 -0.54532,-0.547211 -0.70141,-1.02016 -0.15609,-0.47295 -0.74032,-1.563749 -1.2983,-2.423999 -0.55798,-0.86025 -1.10088,-1.83825 -1.20646,-2.173334 -0.14998,-0.476019 -0.27034,-0.544188 -0.55042,-0.311743 -0.24227,0.201063 -0.40363,1.21333 -0.49779,3.122784 -0.0766,1.553907 -0.21218,3.674288 -0.30122,4.711968 -0.15116,1.76156 -0.0801,2.12901 1.07133,5.5407 1.0587,3.13692 1.20995,3.84345 1.06877,4.99249 -0.37502,3.05241 -0.42452,4.9333 -0.20313,7.71863 l 0.23374,2.94058 1.02603,1.02603 c 0.84184,0.84184 1.26023,1.05015 2.3308,1.16045 1.05114,0.10831 1.34789,0.25161 1.52653,0.73716 0.1852,0.50339 0.0895,0.68313 -0.58059,1.09065 -1.16017,0.70554 -0.63096,0.8136 4.20899,0.85941 l 4.14555,0.0392 -2.77813,0.20324 c -10.319,0.75492 -25.70829,0.86462 -70.114582,0.49977 z m 57.603112,-0.99346 c 0.1932,-0.12278 0.3481,-0.98945 0.3894,-2.17876 0.0554,-1.59544 -0.10168,-2.5595 -0.81757,-5.01759 -0.83488,-2.86667 -0.87703,-3.20501 -0.72856,-5.84794 0.11876,-2.11401 0.0713,-2.92323 -0.19259,-3.28414 -0.47804,-0.65374 -1.08583,-0.35974 -1.6309,0.78892 -0.48257,1.01695 -1.53841,1.99316 -2.15574,1.99316 -0.20798,0 -1.00954,-0.28881 -1.78126,-0.6418 -0.77171,-0.35299 -1.92427,-0.78213 -2.56124,-0.95365 -0.63698,-0.17152 -1.58106,-0.52761 -2.09797,-0.79132 -1.17058,-0.59719 -2.8996,-0.94553 -2.8996,-0.58417 0,0.14462 -0.76821,0.76346 -1.70715,1.3752 -0.93893,0.61174 -2.18908,1.63509 -2.77812,2.27412 -0.91762,0.9955 -1.07098,1.33075 -1.07098,2.34119 0,1.42598 0.32855,2.35416 1.19984,3.38962 0.6937,0.82442 0.65712,1.26372 -0.10522,1.26372 -0.55623,0 -1.93237,-1.39939 -2.5161,-2.55861 -0.23232,-0.46135 -0.96002,-1.27936 -1.61712,-1.81781 -1.2957,-1.06172 -1.56758,-2.02 -0.70421,-2.48206 1.00432,-0.5375 2.68237,-2.10743 2.42354,-2.26739 -0.62747,-0.3878 -0.25862,-1.62403 0.7901,-2.64808 0.58209,-0.56839 1.05834,-1.17181 1.05834,-1.34094 0,-0.16912 0.24586,-0.62006 0.54636,-1.00208 0.3005,-0.38202 0.46348,-0.82868 0.36219,-0.99258 -0.30592,-0.49498 -4.11522,-2.1154 -4.57828,-1.94754 -0.57027,0.20674 -2.94486,3.01759 -2.94486,3.4859 0,0.20146 -0.53925,1.47478 -1.19834,2.82962 -0.88869,1.82681 -1.48691,2.6924 -2.3151,3.34981 -2.0531,1.62974 -3.8816,3.49505 -3.70546,3.78005 0.19425,0.31431 0.19963,0.35907 0.46312,3.85424 0.25832,3.42654 0.35283,3.60363 2.45477,4.5993 l 1.78747,0.84672 8.86354,0.14374 c 15.03136,0.24377 19.43443,0.25294 19.7677,0.0411 z m -39.934306,-0.8998 c -0.162436,-0.46596 -0.751041,-1.44822 -1.308015,-2.18281 -0.556975,-0.73459 -1.013193,-1.43392 -1.01382,-1.55408 -5.29e-4,-0.12015 0.314158,-0.47733 0.699518,-0.79375 1.503688,-1.23464 2.436887,-2.28986 3.557141,-4.02226 l 1.166161,-1.8034 -0.09383,-2.36398 c -0.08616,-2.17074 -0.175543,-2.50484 -1.09352,-4.08718 l -0.999694,-1.7232 -0.327187,1.02383 c -0.179953,0.5631 -0.796922,1.99631 -1.371039,3.18491 -1.368456,2.83313 -1.646491,2.96186 -4.678815,2.16625 -1.110588,-0.29139 -3.308519,-0.80187 -4.884287,-1.13441 l -2.865038,-0.6046 -0.252894,0.69021 c -0.139092,0.37961 -0.611373,1.37181 -1.049515,2.20487 -0.438142,0.83306 -1.029806,2.19242 -1.31481,3.0208 -0.462571,1.34449 -0.475488,1.55333 -0.120346,1.94576 0.218816,0.24179 0.397846,0.64575 0.397846,0.89769 0,0.63368 1.616274,3.0456 2.155632,3.21679 0.639445,0.20295 0.837629,0.94422 0.375894,1.40596 -0.885148,0.88515 -3.763251,0.44733 -5.058509,-0.7695 -0.302407,-0.28409 -0.724024,-0.51654 -0.936927,-0.51654 -0.838567,0 -1.563173,-0.80416 -1.563173,-1.73479 0,-0.50107 0.119063,-0.91104 0.264583,-0.91104 0.145521,0 0.264584,-0.18428 0.264584,-0.40951 0,-0.22523 0.301275,-0.68872 0.669501,-1.02998 0.562712,-0.5215 0.713279,-0.99427 0.943963,-2.96393 0.150954,-1.2889 0.367526,-2.90495 0.481271,-3.59121 0.113745,-0.68627 0.115849,-1.19154 0.0047,-1.12283 -0.111172,0.0687 -0.243325,10e-4 -0.293671,-0.14969 -0.05035,-0.15104 -0.737403,0.32227 -1.526794,1.05179 -0.78939,0.72953 -1.496412,1.26526 -1.57116,1.19051 -0.07475,-0.0747 0.01026,-0.68239 0.188896,-1.35031 0.218464,-0.81681 0.798345,-1.74522 1.771204,-2.83576 0.795521,-0.89176 1.446937,-1.70648 1.447591,-1.8105 6.61e-4,-0.10402 -0.254395,-0.32591 -0.566776,-0.49309 -0.472964,-0.25313 -0.613916,-0.22149 -0.842684,0.18913 -0.151096,0.2712 -0.978773,1.17014 -1.839283,1.99764 -0.990178,0.9522 -1.491444,1.62287 -1.365394,1.82682 0.122378,0.19801 0.08874,0.25402 -0.08724,0.14525 -0.157528,-0.0974 -0.360206,0.0555 -0.450396,0.33965 -0.09019,0.28416 -0.567622,0.64987 -1.06096,0.81269 -0.493338,0.16281 -1.117935,0.645 -1.387993,1.07153 -0.270059,0.42653 -1.031855,1.34247 -1.69288,2.03543 -1.741952,1.82609 -2.676937,3.36999 -2.802744,4.62806 -0.06067,0.60669 -0.280572,1.51057 -0.488673,2.00863 -0.506317,1.21178 -0.499357,3.11914 0.0121,3.3154 0.214755,0.0824 5.237409,0.15686 11.161452,0.16546 5.924043,0.009 10.828336,0.073 10.898424,0.14305 0.07009,0.0701 2.06593,0.12744 4.435203,0.12744 h 4.307763 l -0.295333,-0.8472 z m 4.558649,-1.41477 c 0.187555,-0.994 0.251481,-2.31949 0.149937,-3.10885 -0.09736,-0.75683 -0.196988,-1.57568 -0.221401,-1.81965 -0.0646,-0.64569 -0.325318,-0.38567 -1.271553,1.26818 -0.73275,1.28071 -0.823786,1.64413 -0.691547,2.76067 0.162571,1.37266 0.81874,2.63245 1.371121,2.63245 0.204724,0 0.464516,-0.67853 0.663443,-1.7328 z m 2.870847,-15.08732 c 0.01,-0.80009 0.0809,-1.55755 0.1586,-1.68323 0.0777,-0.12568 0.20401,-0.7282 0.28074,-1.33892 0.0767,-0.61073 0.31054,-1.44112 0.51955,-1.84532 0.20902,-0.4042 0.30913,-0.80581 0.22246,-0.89248 -0.0867,-0.0867 0.0288,-0.44201 0.25656,-0.78964 0.33527,-0.51169 0.36146,-0.8396 0.13752,-1.72186 -0.24166,-0.95207 -0.18673,-1.31436 0.43467,-2.866576 0.39121,-0.977224 1.00689,-2.128075 1.36818,-2.557447 1.19367,-1.418599 1.98598,-3.294351 1.89862,-4.494911 l -0.0804,-1.10512 -1.25199,2.116667 c -0.6886,1.164166 -1.25414,2.344331 -1.25677,2.622587 -0.007,0.715593 -1.24127,2.736497 -1.88069,3.078702 -1.08026,0.578143 -3.025051,-0.484236 -2.03566,-1.112022 0.24342,-0.154451 0.19598,-0.216688 -0.16735,-0.219591 -0.398195,-0.0032 -0.27039,-0.222529 0.59531,-1.021742 0.6063,-0.55973 1.10236,-1.145907 1.10236,-1.302616 0,-0.156709 0.27876,-0.621483 0.61946,-1.032831 0.34071,-0.411347 0.68621,-1.013729 0.76778,-1.338626 0.12738,-0.507347 0.0798,-0.554027 -0.33748,-0.33073 -0.2672,0.142997 -0.89259,0.259994 -1.38976,0.259994 -0.49718,0 -1.29,0.134577 -1.761839,0.29906 l -0.857885,0.299061 0.189542,3.286251 0.189545,3.286251 -1.360548,-0.180482 c -1.603481,-0.212709 -1.603061,-0.146808 0.01511,2.363981 0.987375,1.53203 2.073985,4.0561 2.073985,4.81762 0,0.21646 0.23628,1.0658 0.52506,1.88743 0.37065,1.05457 0.47463,1.81124 0.35358,2.57308 -0.15207,0.95712 -0.12476,1.04068 0.24145,0.73869 0.27802,-0.22927 0.4186,-0.81575 0.4303,-1.79523 z m 26.44057,-2.83569 c 0.0571,-1.51658 -0.0223,-2.15499 -0.30299,-2.43569 -0.57622,-0.57622 -0.77143,-3.68479 -0.35315,-5.623603 0.19622,-0.909505 0.27407,-1.653646 0.173,-1.653646 -0.10107,0 -0.51274,-0.474714 -0.91483,-1.054921 -0.40208,-0.580206 -1.40054,-1.490769 -2.21879,-2.023473 -2.07973,-1.353953 -2.94295,-2.211683 -2.94295,-2.924232 0,-0.825685 -0.5544,-0.793025 -3.08596,0.181793 -1.13374,0.436562 -2.26179,0.79375 -2.50679,0.79375 -1.0009,0 -2.3282,4.773757 -1.4238,5.120807 0.22108,0.08484 0.40197,0.328133 0.40197,0.540656 0,0.242503 0.56361,0.550248 1.51339,0.826359 0.83237,0.241975 1.99323,0.684164 2.57969,0.982646 1.31813,0.670854 3.84442,2.797524 3.84442,3.236294 0,0.17804 0.2358,0.53712 0.52399,0.79793 0.2882,0.26081 0.60037,0.88131 0.69372,1.37889 0.1418,0.75589 0.0361,1.07092 -0.64254,1.91543 l -0.81226,1.01075 1.50761,0.17995 c 0.82918,0.099 1.86479,0.34351 2.30136,0.5434 1.41878,0.64965 1.57942,0.47664 1.66491,-1.79309 z m 0.0554,-15.999259 -0.32069,-2.185279 -1.08268,0.796217 c -0.59548,0.437918 -1.27355,0.796215 -1.50682,0.796215 -0.23327,0 -0.56099,0.136868 -0.72827,0.30415 -0.40352,0.403515 0.69294,1.741562 2.45931,3.001203 l 1.31088,0.934815 0.0945,-0.731021 c 0.052,-0.402062 -0.0498,-1.714397 -0.22621,-2.9163 z m -36.777646,0.053 c 0,-0.234184 0.126601,-0.334246 0.292876,-0.231483 0.205054,0.12673 0.236365,-0.08677 0.104417,-0.711989 -0.259791,-1.230997 -0.619379,-1.549218 -1.009083,-0.892996 -0.562094,0.94651 -0.627111,1.574445 -0.197742,1.909814 0.562523,0.439371 0.809532,0.416991 0.809532,-0.07335 z M 68.398794,90.16248 c 0,-1.017445 -0.0998,-1.071994 -1.023909,-0.559651 l -0.627034,0.347639 0.610779,0.569026 c 0.842622,0.785023 1.040164,0.717221 1.040164,-0.357014 z"
      id="path302"
    />
  </g>
</svg>
